<?xml version="1.0" encoding="UTF-8"?>
<!DOCTYPE svg PUBLIC "-//W3C//DTD SVG 1.1//EN" "http://www.w3.org/Graphics/SVG/1.1/DTD/svg11.dtd">
<!-- Creator: CorelDRAW -->
<svg xmlns="http://www.w3.org/2000/svg" xml:space="preserve" width="0.226752in" height="0.219736in" version="1.1" style="shape-rendering:geometricPrecision; text-rendering:geometricPrecision; image-rendering:optimizeQuality; fill-rule:evenodd; clip-rule:evenodd"
viewBox="0 0 29.11 28.21"
 xmlns:xlink="http://www.w3.org/1999/xlink"
 xmlns:xodm="http://www.corel.com/coreldraw/odm/2003">
 <defs>
  <style type="text/css">
   <![CDATA[
    .fil1 {fill:#1C3A5A}
    .fil3 {fill:#6B3A52}
    .fil4 {fill:#E53B4D}
    .fil2 {fill:#F79334}
    .fil0 {fill:#FE4749}
   ]]>
  </style>
 </defs>
 <g id="Layer_x0020_1">
  <metadata id="CorelCorpID_0Corel-Layer"/>
  <g id="_3033339177600">
   <path class="fil0" d="M4.71 24.33c0.36,0.09 0.3,-0.01 0.45,0.25 0.14,-0.14 0.06,0.19 -0.03,-0.17 -0.09,-0.33 -0.03,-0.22 0.01,-0.67l0.53 0.09c-0.02,-0.19 0.01,-0.39 -0.02,-0.62 -0,-0.03 -0.02,-0.11 -0.03,-0.13 -0.1,-0.45 -0.09,-0.23 0.11,-0.65l0.39 -0.55c0.02,-0.01 0.05,-0.03 0.06,-0.05l0.31 -0.3c-0.33,-0.22 -0.24,-0.09 -0.43,-0.49 0.02,-0.39 -0.87,-1.16 -1.55,-2.41 -0.76,-1.39 -0.94,-2.79 -1.06,-3.02 1.19,0 4.7,0.23 5.42,-0.35 0.44,-0.36 0.51,-0.94 0.92,-1.23 0.72,1.36 0.74,2.07 1.7,3.51 1.3,0 0.92,-0.28 1.56,-2.85 0.16,-0.65 0.26,-1.17 0.41,-1.85 0.12,-0.56 0.36,-1.35 0.4,-1.86 0.08,0.13 0,-0.06 0.11,0.23 0,0 0.07,0.25 0.08,0.26 0.06,0.23 0.1,0.52 0.13,0.66l1.54 7.28c0.16,0.71 0.07,0.56 0.41,1.06 1.05,0 0.93,-0.34 1.4,-1.77 0.2,-0.59 0.7,-1.86 0.75,-2.39 -0.12,0.16 -0.15,0.21 -0.24,0.44 -0.31,-0.33 -0.65,-0.19 -0.92,-0.33 -0.05,-0.2 0.09,-0.55 0.1,-1.04 -0.33,0.66 -0.24,1.18 -0.64,1.47l-1.88 -9.1c-0.17,-0.76 -0.18,-0.6 -0.5,-1.08l-0.68 0c-0.56,0.84 -0.75,2.6 -1.02,3.73 -0.19,0.8 -0.79,3.43 -0.79,4.07l-0.23 0c-0.16,-0.67 -0.72,-1.8 -1.01,-2.38 -0.18,-0.37 -0.45,-0.74 -1.06,-0.5 -0.44,0.17 -0.48,0.67 -0.72,1.11 -0.15,0.26 -0.48,0.86 -0.64,1.06 -0.31,0.38 -0.53,0.33 -1.22,0.36 -1.12,0.06 -2.37,0.01 -3.5,0.01 0,-1.75 0.44,-3.73 1.29,-5.16 3.65,-6.11 8.76,-5.35 9.62,-5.76 0.21,-0.1 0.11,0.01 0.16,-0.26l-0.09 -2.97c-5.21,0 -8.21,1.82 -11.17,5.12 -0.79,0.88 -1.61,2.17 -2.08,3.35 -1.72,4.29 -1.48,9.94 1.59,13.84 0.19,0.24 0.4,0.52 0.61,0.75 0.23,0.25 1.07,1.26 1.44,1.27z"/>
   <path class="fil1" d="M27.07 14.15l0.04 1.42 -1.69 0.04c-0.93,4.05 -3.2,7.06 -7.23,8.39 -1.68,0.56 -2.55,0.53 -4.77,0.55 -0.14,0.21 -0.05,-0.01 -0.05,0.28l-0.09 1.52c-0.08,0.64 -0.15,0.21 -0.13,0.8 0.01,0.39 0.14,0.47 0.16,0.79l-1.75 0.01c0.27,0.01 0.77,0.1 1.15,0.15 2.63,0.36 6.02,-0.16 8.3,-1.28 5.18,-2.54 8.88,-7.91 7.97,-14.2 -0.25,-1.75 -0.56,-3 -1.22,-4.33 -0.51,-1.03 -1.49,-2.75 -2.34,-3.32l-2.29 2.24c0.21,0.29 0.3,0.39 0.49,0.7 0.14,0.23 0.29,0.45 0.45,0.68 0.86,1.28 1.58,3.62 1.58,5.32l2.72 0.11c-0.49,0 -0.92,-0.07 -1.29,0.11z"/>
   <path class="fil2" d="M15.8 3.39c1.67,0 3.1,0.61 4.35,1.31 0.86,0.48 1.53,1.11 2.1,1.41 0.9,-0.6 0.5,-0.45 1.16,-1.1 0.39,-0.39 0.81,-0.71 1.1,-1.16 -0.28,-0.19 -0.56,-0.41 -0.82,-0.65 -0.32,-0.29 -0.55,-0.42 -0.92,-0.66 -2.16,-1.44 -4.03,-2.29 -6.97,-2.54l0 3.39z"/>
   <path class="fil2" d="M17.23 15.39c-0.01,0.48 -0.15,0.83 -0.1,1.04 0.27,0.15 0.61,0.01 0.92,0.33 0.09,-0.22 0.12,-0.27 0.24,-0.44l0.79 -2.18 0.36 0.54c0.52,0.81 0.9,0.94 2.01,0.93 1.32,-0.01 2.64,0.01 3.96,-0.01l1.69 -0.04 -0.04 -1.42 -2.93 -0.09c-4.02,-0.2 -2.85,0.75 -4.32,-1.89 -0.2,-0.36 -0.44,-0.53 -0.85,-0.62 -0.73,0.09 -1.57,3.1 -1.73,3.85z"/>
   <path class="fil3" d="M8.33 26.8c0.16,0.16 0.01,0.05 0.27,0.2 0.73,0.39 2.22,0.69 2.96,0.95l1.75 -0.01c-0.02,-0.31 -0.14,-0.39 -0.16,-0.79 -0.02,-0.59 0.06,-0.16 0.13,-0.8l0.09 -1.52c-0.01,-0.29 -0.1,-0.07 0.05,-0.28l-1.13 -0.23c-1.74,-0.29 -2.6,-0.9 -3.21,-1.02 0.28,0.51 -0.04,-0.17 -0.05,0.79 -0.02,1.43 0.15,0.09 -0.15,1.9 -0.12,0.71 0.26,0.3 -0.3,0.62 0.11,0.06 0.12,0.06 0.25,0.15 0.15,0.11 0.1,0.07 0.2,0.18l-0.7 -0.15z"/>
   <path class="fil4" d="M4.71 24.33c0.25,0.6 1.07,1.06 1.63,1.43 0.45,0.3 1.48,0.96 1.99,1.04l0.7 0.15c-0.1,-0.11 -0.05,-0.08 -0.2,-0.18 -0.13,-0.09 -0.14,-0.09 -0.25,-0.15 0.55,-0.32 0.18,0.09 0.3,-0.62 0.3,-1.81 0.13,-0.46 0.15,-1.9 0.01,-0.96 0.33,-0.27 0.05,-0.79 -0.01,-0.02 -0.04,-0.07 -0.05,-0.05l-1.46 -1c-0.41,-0.35 -1.05,-1.03 -1.5,-1.21 0.19,0.4 0.1,0.27 0.43,0.49l-0.31 0.3c-0.02,0.01 -0.05,0.03 -0.06,0.05l-0.39 0.55c-0.21,0.42 -0.21,0.19 -0.11,0.65 0.01,0.03 0.03,0.1 0.03,0.13 0.04,0.24 0,0.43 0.02,0.62l-0.53 -0.09c-0.04,0.45 -0.1,0.34 -0.01,0.67 0.1,0.36 0.17,0.03 0.03,0.17 -0.15,-0.26 -0.09,-0.16 -0.45,-0.25z"/>
  </g>
 </g>
</svg>
